<?xml version="1.0" encoding="UTF-8"?>
<svg xmlns="http://www.w3.org/2000/svg"
	version="1.1" baseProfile="full"
	width="570px" height="430px" viewBox="0 0 570 430">

  <line x1="80" x2="80" y1="80" y2="350" stroke="black" stroke-width="3" /><line x1="75" x2="85" y1="350" y2="350" stroke="black" stroke-width="3" /><text x="35" y="357" fill="black" style="font-size: 20px; font-family: Helvetica;" text-anchor="middle">0 %</text><line x1="75" x2="85" y1="283" y2="283" stroke="black" stroke-width="3" /><text x="35" y="290" fill="black" style="font-size: 20px; font-family: Helvetica;" text-anchor="middle">25 %</text><line x1="75" x2="85" y1="215" y2="215" stroke="black" stroke-width="3" /><text x="35" y="222" fill="black" style="font-size: 20px; font-family: Helvetica;" text-anchor="middle">50 %</text><line x1="75" x2="85" y1="148" y2="148" stroke="black" stroke-width="3" /><text x="35" y="155" fill="black" style="font-size: 20px; font-family: Helvetica;" text-anchor="middle">75 %</text><line x1="75" x2="85" y1="80" y2="80" stroke="black" stroke-width="3" /><text x="35" y="87" fill="black" style="font-size: 20px; font-family: Helvetica;" text-anchor="middle">100 %</text>

  <line x1="80" x2="490" y1="350" y2="350" stroke="black" stroke-width="3" />

  
    <text x="180" y="375" fill="black" style="font-size: 25px; font-family: Helvetica;" text-anchor="middle">questionA</text>
    
      <rect x="90" y="282.5" width="50" height="-67.5" fill="green" />
    
      <rect x="150" y="215.0" width="50" height="-135.0" fill="blue" />
    
      <rect x="210" y="147.5" width="50" height="-202.5" fill="red" />
    
  
    <text x="380" y="375" fill="black" style="font-size: 25px; font-family: Helvetica;" text-anchor="middle">questionB</text>
    
      <rect x="290" y="134.0" width="50" height="-216.0" fill="green" />
    
      <rect x="350" y="242.0" width="50" height="-108.0" fill="blue" />
    
      <rect x="410" y="296.0" width="50" height="-54.0" fill="red" />
    
  

</svg>
